<?xml version="1.0" standalone="no"?>
<!DOCTYPE svg PUBLIC "-//W3C//DTD SVG 20010904//EN"
 "http://www.w3.org/TR/2001/REC-SVG-20010904/DTD/svg10.dtd">
<svg version="1.0" xmlns="http://www.w3.org/2000/svg"
 width="507.000000pt" height="535.000000pt" viewBox="0 0 507.000000 535.000000"
 preserveAspectRatio="xMidYMid meet">

<g transform="translate(0.000000,535.000000) scale(0.100000,-0.100000)"
fill="#000000" stroke="none">
<path d="M3600 4844 c-96 -40 -179 -75 -185 -77 -10 -4 11 -54 151 -344 l93
-192 188 76 c103 42 190 78 192 79 5 4 -252 534 -259 533 -3 -1 -84 -34 -180
-75z"/>
<path d="M2510 4400 c-90 -37 -166 -73 -168 -78 -4 -13 240 -522 250 -522 16
0 358 143 358 150 0 22 -251 520 -262 519 -7 0 -87 -31 -178 -69z"/>
<path d="M1448 3966 c-97 -39 -179 -74 -182 -77 -5 -5 238 -507 252 -520 5 -6
343 123 361 138 4 3 -58 135 -184 390 l-70 141 -177 -72z"/>
<path d="M1000 2095 l0 -1035 1665 0 1665 0 0 1035 0 1035 -1665 0 -1665 0 0
-1035z m1737 285 c180 -83 338 -160 351 -173 39 -36 55 -76 49 -125 -10 -90
-17 -95 -432 -283 -322 -147 -351 -155 -424 -117 -88 45 -86 37 -89 396 -2
174 0 327 3 339 8 32 55 84 90 99 75 33 104 24 452 -136z"/>
</g>
</svg>
